<svg width="400" height="400" viewBox="0 0 400 400" fill="none" xmlns="http://www.w3.org/2000/svg">
<path d="M311.164 188.75C313.331 187.75 315.247 187.917 316.914 189.25C318.581 190.583 319.331 192.417 319.164 194.75C319.164 196.917 318.081 198.5 315.914 199.5C310.914 201.667 305.081 204.417 298.414 207.75C304.914 220.583 307.247 234.167 305.414 248.5C302.081 274.667 286.581 301.917 258.914 330.25C231.914 357.75 203.831 376.917 174.664 387.75C147.497 397.75 129.664 395.917 121.164 382.25C107.831 360.75 119.414 331 155.914 293C187.914 259.667 229.747 229.75 281.414 203.25C276.581 198.25 270.664 194.333 263.664 191.5C256.831 188.667 249.164 187 240.664 186.5C232.164 186 224.497 185.917 217.664 186.25C210.831 186.583 202.914 187.333 193.914 188.5C188.914 189 182.414 189.917 174.414 191.25C166.414 192.417 158.831 193.5 151.664 194.5C144.664 195.5 138.164 196.25 132.164 196.75C126.497 197.583 119.831 197.833 112.164 197.5C104.497 197 98.1641 195.417 93.1641 192.75C87.9974 189.75 84.4141 185.917 82.4141 181.25C80.4141 176.583 79.9141 171.583 80.9141 166.25C82.0807 160.75 83.6641 155.667 85.6641 151C87.6641 146.333 90.0807 141.75 92.9141 137.25C110.581 109.75 138.581 84 176.914 60C193.914 49.3333 210.331 41 226.164 35C241.997 28.8333 257.581 26.4167 272.914 27.75C291.414 29.4167 302.664 36.4167 306.664 48.75C307.497 51.9167 307.997 55.1667 308.164 58.5C308.497 61.6667 308.164 65.1667 307.164 69C306.331 72.8333 305.581 76.0833 304.914 78.75C304.247 81.25 302.914 84.75 300.914 89.25C298.914 93.5833 297.497 96.5 296.664 98C295.997 99.5 294.581 102.5 292.414 107C291.247 109.167 289.497 110.333 287.164 110.5C284.997 110.667 283.247 110 281.914 108.5C280.581 106.833 280.414 104.917 281.414 102.75C281.914 101.75 282.664 100.333 283.664 98.5C284.664 96.5 285.497 94.8333 286.164 93.5C286.831 92.1667 287.664 90.5 288.664 88.5C289.664 86.3333 290.497 84.5 291.164 83C291.831 81.3333 292.581 79.5 293.414 77.5C294.247 75.5 294.831 73.6667 295.164 72C295.664 70.1667 296.081 68.3333 296.414 66.5C296.747 64.6667 296.831 62.9167 296.664 61.25C296.664 59.4167 296.497 57.6667 296.164 56C293.664 45 283.997 39.4167 267.164 39.25C250.497 38.9167 230.164 44.75 206.164 56.75C184.831 67.4167 164.831 80.3333 146.164 95.5C127.664 110.667 112.831 127.25 101.664 145.25C90.9974 162.417 89.2474 174.333 96.4141 181C98.4141 182.833 100.914 184.25 103.914 185.25C107.081 186.25 110.831 186.75 115.164 186.75C119.497 186.583 122.914 186.417 125.414 186.25C128.081 186.083 131.914 185.583 136.914 184.75C142.081 183.917 144.997 183.5 145.664 183.5C150.997 182.833 158.664 181.667 168.664 180C178.664 178.167 187.164 176.833 194.164 176C201.331 175 209.331 174.167 218.164 173.5C226.997 172.667 235.414 172.75 243.414 173.75C251.581 174.75 259.247 176.5 266.414 179C276.747 182.667 285.331 188.917 292.164 197.75C298.997 194.417 305.331 191.417 311.164 188.75ZM293.414 227.5C292.247 222.167 290.497 217.25 288.164 212.75C220.997 246.417 172.997 283.917 144.164 325.25C142.164 328.083 140.247 331 138.414 334C136.581 337 134.664 340.667 132.664 345C130.831 349.5 129.414 353.667 128.414 357.5C127.581 361.333 127.497 365.167 128.164 369C128.831 372.833 130.497 376 133.164 378.5C138.997 384.167 150.831 383.833 168.664 377.5C198.831 366.833 227.497 347 254.664 318C285.831 284.5 298.747 254.333 293.414 227.5Z" fill="white"/>
<path d="M311.164 188.75L312.411 191.478L312.421 191.474L311.164 188.75ZM316.914 189.25L318.788 186.907L318.788 186.907L316.914 189.25ZM319.164 194.75L316.172 194.536L316.164 194.643V194.75H319.164ZM315.914 199.5L317.107 202.253L317.139 202.239L317.171 202.224L315.914 199.5ZM298.414 207.75L297.072 205.067L294.375 206.415L295.738 209.106L298.414 207.75ZM305.414 248.5L302.438 248.119L302.438 248.121L305.414 248.5ZM258.914 330.25L261.055 332.352L261.06 332.346L258.914 330.25ZM174.664 387.75L175.7 390.565L175.709 390.562L174.664 387.75ZM121.164 382.25L118.615 383.831L118.617 383.834L121.164 382.25ZM155.914 293L158.078 295.078L158.078 295.078L155.914 293ZM281.414 203.25L282.783 205.919L286.382 204.073L283.571 201.165L281.414 203.25ZM263.664 191.5L262.515 194.271L262.527 194.276L262.539 194.281L263.664 191.5ZM240.664 186.5L240.84 183.505L240.84 183.505L240.664 186.5ZM193.914 188.5L194.213 191.485L194.256 191.481L194.3 191.475L193.914 188.5ZM174.414 191.25L174.847 194.219L174.877 194.214L174.907 194.209L174.414 191.25ZM151.664 194.5L151.249 191.529L151.24 191.53L151.664 194.5ZM132.164 196.75L131.915 193.76L131.821 193.768L131.728 193.782L132.164 196.75ZM112.164 197.5L111.969 200.494L112.001 200.496L112.034 200.497L112.164 197.5ZM93.1641 192.75L91.6577 195.344L91.7045 195.372L91.7523 195.397L93.1641 192.75ZM80.9141 166.25L77.9794 165.627L77.972 165.662L77.9654 165.697L80.9141 166.25ZM85.6641 151L82.9066 149.818L82.9066 149.818L85.6641 151ZM92.9141 137.25L90.39 135.628L90.3826 135.64L90.3754 135.652L92.9141 137.25ZM176.914 60L178.506 62.5427L178.509 62.5412L176.914 60ZM226.164 35L227.227 37.8053L227.24 37.8004L227.253 37.7955L226.164 35ZM272.914 27.75L273.183 24.7621L273.174 24.7613L272.914 27.75ZM306.664 48.75L309.565 47.9865L309.544 47.9048L309.518 47.8245L306.664 48.75ZM308.164 58.5L305.168 58.6498L305.172 58.7321L305.181 58.814L308.164 58.5ZM307.164 69L304.261 68.2427L304.246 68.3024L304.233 68.3627L307.164 69ZM304.914 78.75L307.813 79.523L307.819 79.5003L307.824 79.4776L304.914 78.75ZM300.914 89.25L303.638 90.5072L303.647 90.4879L303.656 90.4684L300.914 89.25ZM296.664 98L294.042 96.5431L293.977 96.6597L293.923 96.7816L296.664 98ZM292.414 107L295.055 108.422L295.088 108.363L295.117 108.301L292.414 107ZM287.164 110.5L286.95 107.508L286.942 107.508L286.934 107.509L287.164 110.5ZM281.914 108.5L279.571 110.374L279.62 110.435L279.672 110.493L281.914 108.5ZM281.414 102.75L278.731 101.408L278.71 101.45L278.69 101.493L281.414 102.75ZM283.664 98.5L286.298 99.9366L286.323 99.8895L286.347 99.8416L283.664 98.5ZM286.164 93.5L283.481 92.1583L283.481 92.1583L286.164 93.5ZM288.664 88.5L291.347 89.8416L291.368 89.7997L291.388 89.7572L288.664 88.5ZM291.164 83L293.906 84.2184L293.928 84.1667L293.949 84.1142L291.164 83ZM293.414 77.5L296.183 78.6538L296.183 78.6538L293.414 77.5ZM295.164 72L292.27 71.2106L292.243 71.3103L292.222 71.4116L295.164 72ZM296.664 61.25H293.664V61.3996L293.679 61.5485L296.664 61.25ZM296.164 56L299.106 55.4116L299.098 55.3733L299.089 55.3351L296.164 56ZM267.164 39.25L267.104 42.2494L267.119 42.2497L267.134 42.2498L267.164 39.25ZM206.164 56.75L207.506 59.4333L207.506 59.4333L206.164 56.75ZM146.164 95.5L144.272 93.1716L144.262 93.18L146.164 95.5ZM101.664 145.25L104.212 146.833L104.213 146.831L101.664 145.25ZM96.4141 181L94.3708 183.197L94.3788 183.204L94.3869 183.211L96.4141 181ZM103.914 185.25L102.965 188.096L102.988 188.104L103.011 188.111L103.914 185.25ZM115.164 186.75V189.75H115.222L115.279 189.748L115.164 186.75ZM125.414 186.25L125.227 183.256L125.215 183.257L125.414 186.25ZM136.914 184.75L136.436 181.788L136.429 181.79L136.421 181.791L136.914 184.75ZM145.664 183.5V186.5H145.851L146.036 186.477L145.664 183.5ZM168.664 180L169.157 182.959L169.181 182.955L169.205 182.951L168.664 180ZM194.164 176L194.519 178.979L194.549 178.975L194.579 178.971L194.164 176ZM218.164 173.5L218.39 176.491L218.418 176.489L218.446 176.487L218.164 173.5ZM243.414 173.75L243.042 176.727L243.049 176.728L243.414 173.75ZM266.414 179L267.417 176.173L267.41 176.17L267.402 176.167L266.414 179ZM292.164 197.75L289.791 199.586L291.285 201.517L293.479 200.446L292.164 197.75ZM293.414 227.5L296.357 226.915L296.351 226.887L296.345 226.859L293.414 227.5ZM288.164 212.75L290.827 211.369L289.465 208.742L286.82 210.068L288.164 212.75ZM144.164 325.25L146.615 326.98L146.62 326.973L146.625 326.966L144.164 325.25ZM132.664 345L129.94 343.743L129.912 343.805L129.886 343.868L132.664 345ZM128.414 357.5L125.511 356.743L125.496 356.802L125.483 356.863L128.414 357.5ZM128.164 369L125.208 369.514L125.208 369.514L128.164 369ZM133.164 378.5L135.254 376.348L135.235 376.33L135.216 376.311L133.164 378.5ZM168.664 377.5L167.664 374.672L167.66 374.673L168.664 377.5ZM254.664 318L256.853 320.051L256.861 320.043L254.664 318ZM312.421 191.474C313.143 191.141 313.64 191.085 313.967 191.114C314.271 191.14 314.617 191.254 315.04 191.593L318.788 186.907C317.545 185.913 316.099 185.276 314.486 185.136C312.897 184.998 311.352 185.359 309.907 186.026L312.421 191.474ZM315.04 191.593C315.853 192.243 316.276 193.076 316.172 194.536L322.156 194.964C322.385 191.757 321.308 188.923 318.788 186.907L315.04 191.593ZM316.164 194.75C316.164 195.31 316.033 195.639 315.876 195.868C315.706 196.116 315.368 196.448 314.657 196.776L317.171 202.224C318.627 201.552 319.914 200.592 320.827 199.257C321.754 197.903 322.164 196.357 322.164 194.75H316.164ZM314.721 196.747C309.657 198.942 303.772 201.717 297.072 205.067L299.756 210.433C306.39 207.116 312.172 204.391 317.107 202.253L314.721 196.747ZM295.738 209.106C301.965 221.401 304.196 234.379 302.438 248.119L308.39 248.881C310.299 233.954 307.863 219.766 301.09 206.394L295.738 209.106ZM302.438 248.121C299.219 273.388 284.196 300.065 256.768 328.154L261.06 332.346C288.966 303.768 304.942 275.945 308.39 248.879L302.438 248.121ZM256.773 328.148C230.01 355.407 202.287 374.29 173.62 384.938L175.709 390.562C205.375 379.543 233.818 360.093 261.055 332.352L256.773 328.148ZM173.628 384.935C160.239 389.863 149.487 391.741 141.221 390.891C133.107 390.057 127.411 386.614 123.712 380.666L118.617 383.834C123.417 391.553 130.888 395.86 140.607 396.859C150.175 397.843 161.922 395.637 175.7 390.565L173.628 384.935ZM123.714 380.669C117.672 370.927 117.099 359.151 122.647 344.901C128.232 330.557 139.946 313.955 158.078 295.078L153.75 290.922C135.382 310.045 123.055 327.318 117.056 342.724C111.021 358.224 111.323 372.073 118.615 383.831L123.714 380.669ZM158.078 295.078C189.797 262.037 231.34 232.305 282.783 205.919L280.045 200.581C228.155 227.195 186.031 257.297 153.75 290.922L158.078 295.078ZM283.571 201.165C278.422 195.838 272.145 191.696 264.79 188.719L262.539 194.281C269.184 196.971 274.739 200.662 279.257 205.335L283.571 201.165ZM264.813 188.729C257.627 185.749 249.625 184.022 240.84 183.505L240.488 189.495C248.703 189.978 256.034 191.584 262.515 194.271L264.813 188.729ZM240.84 183.505C232.258 183 224.481 182.914 217.518 183.254L217.81 189.246C224.514 188.919 232.071 189 240.488 189.495L240.84 183.505ZM217.518 183.254C210.584 183.592 202.584 184.351 193.528 185.525L194.3 191.475C203.244 190.316 211.078 189.575 217.81 189.246L217.518 183.254ZM193.616 185.515C188.523 186.024 181.952 186.952 173.921 188.291L174.907 194.209C182.877 192.881 189.305 191.976 194.213 191.485L193.616 185.515ZM173.981 188.281C165.987 189.447 158.409 190.53 151.249 191.529L152.079 197.471C159.252 196.47 166.842 195.386 174.847 194.219L173.981 188.281ZM151.24 191.53C144.288 192.523 137.847 193.266 131.915 193.76L132.413 199.74C138.481 199.234 145.04 198.477 152.088 197.47L151.24 191.53ZM131.728 193.782C126.299 194.58 119.831 194.831 112.294 194.503L112.034 200.497C119.83 200.836 126.695 200.586 132.601 199.718L131.728 193.782ZM112.359 194.506C104.975 194.025 99.0909 192.511 94.5758 190.103L91.7523 195.397C97.2372 198.322 104.02 199.975 111.969 200.494L112.359 194.506ZM94.6705 190.156C89.9599 187.42 86.8745 184.042 85.1715 180.068L79.6566 182.432C81.9537 187.792 86.0349 192.08 91.6577 195.344L94.6705 190.156ZM85.1715 180.068C83.4221 175.986 82.9643 171.594 83.8627 166.803L77.9654 165.697C76.8638 171.573 77.4061 177.18 79.6566 182.432L85.1715 180.068ZM83.8488 166.873C84.979 161.544 86.5064 156.65 88.4215 152.182L82.9066 149.818C80.8217 154.683 79.1824 159.956 77.9794 165.627L83.8488 166.873ZM88.4215 152.182C90.3568 147.666 92.6992 143.222 95.4528 138.848L90.3754 135.652C87.4623 140.278 84.9714 145.001 82.9066 149.818L88.4215 152.182ZM95.4381 138.871C112.792 111.858 140.412 86.3927 178.506 62.5427L175.322 57.4572C136.749 81.6073 108.369 107.642 90.39 135.628L95.4381 138.871ZM178.509 62.5412C195.37 51.9611 211.61 43.7236 227.227 37.8053L225.101 32.1947C209.052 38.2764 192.458 46.7055 175.32 57.4588L178.509 62.5412ZM227.253 37.7955C242.703 31.7782 257.825 29.4492 272.654 30.7387L273.174 24.7613C257.336 23.3841 241.292 25.8885 225.075 32.2045L227.253 37.7955ZM272.645 30.7379C290.554 32.3514 300.338 38.9699 303.81 49.6755L309.518 47.8245C304.99 33.8634 292.274 26.482 273.183 24.7621L272.645 30.7379ZM303.763 49.5135C304.542 52.4756 305.011 55.5198 305.168 58.6498L311.16 58.3502C310.984 54.8136 310.452 51.3577 309.565 47.9865L303.763 49.5135ZM305.181 58.814C305.468 61.546 305.192 64.6766 304.261 68.2427L310.067 69.7573C311.137 65.6567 311.527 61.7873 311.148 58.1859L305.181 58.814ZM304.233 68.3627C303.403 72.1774 302.66 75.3953 302.004 78.0224L307.824 79.4776C308.501 76.7713 309.258 73.4893 310.096 69.6373L304.233 68.3627ZM302.015 77.977C301.411 80.2442 300.155 83.5716 298.173 88.0316L303.656 90.4684C305.673 85.9284 307.084 82.2558 307.813 79.523L302.015 77.977ZM298.19 87.9928C296.185 92.3373 294.813 95.1554 294.042 96.5431L299.287 99.4569C300.182 97.8445 301.643 94.8293 303.638 90.5072L298.19 87.9928ZM293.923 96.7816C293.278 98.2326 291.881 101.191 289.711 105.699L295.117 108.301C297.28 103.809 298.717 100.767 299.406 99.2184L293.923 96.7816ZM289.773 105.578C289.063 106.897 288.196 107.419 286.95 107.508L287.378 113.492C290.798 113.248 293.432 111.437 295.055 108.422L289.773 105.578ZM286.934 107.509C285.613 107.61 284.809 107.242 284.156 106.507L279.672 110.493C281.685 112.758 284.382 113.723 287.394 113.491L286.934 107.509ZM284.257 106.626C283.918 106.202 283.804 105.857 283.778 105.553C283.749 105.226 283.805 104.729 284.138 104.007L278.69 101.493C278.023 102.937 277.662 104.483 277.8 106.072C277.941 107.684 278.577 109.131 279.571 110.374L284.257 106.626ZM284.097 104.092C284.573 103.14 285.303 101.76 286.298 99.9366L281.03 97.0634C280.025 98.9063 279.255 100.36 278.731 101.408L284.097 104.092ZM286.347 99.8416C287.347 97.8416 288.181 96.175 288.847 94.8416L283.481 92.1583C282.814 93.4917 281.981 95.1584 280.981 97.1584L286.347 99.8416ZM288.847 94.8416C289.514 93.5083 290.347 91.8416 291.347 89.8416L285.981 87.1584C284.981 89.1584 284.147 90.825 283.481 92.1583L288.847 94.8416ZM291.388 89.7572C292.391 87.5828 293.231 85.7357 293.906 84.2184L288.423 81.7816C287.764 83.2643 286.937 85.0838 285.94 87.2428L291.388 89.7572ZM293.949 84.1142C294.61 82.4631 295.354 80.6432 296.183 78.6538L290.645 76.3461C289.807 78.3567 289.052 80.2035 288.379 81.8858L293.949 84.1142ZM296.183 78.6538C297.073 76.5185 297.725 74.493 298.106 72.5884L292.222 71.4116C291.937 72.8403 291.422 74.4815 290.645 76.3462L296.183 78.6538ZM298.058 72.7893C298.581 70.8743 299.017 68.9567 299.366 67.0366L293.462 65.9633C293.145 67.71 292.747 69.459 292.27 71.2106L298.058 72.7893ZM299.366 67.0366C299.744 64.9584 299.847 62.926 299.649 60.9515L293.679 61.5485C293.815 62.9073 293.751 64.3749 293.462 65.9633L299.366 67.0366ZM299.664 61.25C299.664 59.2344 299.481 57.2865 299.106 55.4116L293.222 56.5883C293.514 58.0468 293.664 59.5989 293.664 61.25H299.664ZM299.089 55.3351C297.657 49.0303 294.105 44.1791 288.54 40.9647C283.088 37.8158 275.885 36.3362 267.194 36.2501L267.134 42.2498C275.276 42.3305 281.324 43.7259 285.539 46.1603C289.64 48.5292 292.172 51.9697 293.239 56.6649L299.089 55.3351ZM267.224 36.2506C249.862 35.9033 229.02 41.9677 204.822 54.0667L207.506 59.4333C231.308 47.5323 251.133 41.93 267.104 42.2494L267.224 36.2506ZM204.822 54.0667C183.292 64.8321 163.107 77.8681 144.272 93.1716L148.056 97.8283C166.554 82.7985 186.37 70.0012 207.506 59.4333L204.822 54.0667ZM144.262 93.18C125.54 108.529 110.476 125.355 99.1148 143.668L104.213 146.831C115.185 129.145 129.788 112.804 148.066 97.82L144.262 93.18ZM99.1159 143.667C93.6931 152.394 90.3455 160.075 89.3834 166.627C88.4025 173.306 89.8949 179.033 94.3708 183.197L98.4574 178.803C95.7665 176.3 94.5507 172.735 95.3197 167.498C96.1077 162.133 98.9684 155.273 104.212 146.833L99.1159 143.667ZM94.3869 183.211C96.745 185.373 99.6309 186.985 102.965 188.096L104.863 182.404C102.197 181.515 100.083 180.294 98.4412 178.789L94.3869 183.211ZM103.011 188.111C106.543 189.226 110.612 189.75 115.164 189.75V183.75C111.049 183.75 107.618 183.274 104.817 182.389L103.011 188.111ZM115.279 189.748C119.624 189.581 123.073 189.413 125.614 189.243L125.215 183.257C122.756 183.421 119.371 183.586 115.049 183.752L115.279 189.748ZM125.601 189.244C128.424 189.068 132.379 188.547 137.407 187.709L136.421 181.791C131.45 182.619 127.737 183.099 125.227 183.256L125.601 189.244ZM137.392 187.712C139.969 187.296 141.969 186.987 143.401 186.782C144.118 186.68 144.678 186.606 145.089 186.558C145.552 186.504 145.695 186.5 145.664 186.5V180.5C145.066 180.5 143.917 180.648 142.552 180.843C141.068 181.055 139.026 181.371 136.436 181.788L137.392 187.712ZM146.036 186.477C151.431 185.802 159.146 184.628 169.157 182.959L168.171 177.041C158.183 178.706 150.564 179.864 145.292 180.523L146.036 186.477ZM169.205 182.951C179.168 181.124 187.602 179.802 194.519 178.979L193.809 173.021C186.726 173.864 178.16 175.209 168.123 177.049L169.205 182.951ZM194.579 178.971C201.671 177.982 209.606 177.154 218.39 176.491L217.938 170.509C209.055 171.179 200.991 172.018 193.749 173.029L194.579 178.971ZM218.446 176.487C227.083 175.672 235.279 175.757 243.042 176.727L243.786 170.773C235.549 169.743 226.912 169.661 217.882 170.513L218.446 176.487ZM243.049 176.728C251.021 177.704 258.477 179.409 265.426 181.833L267.402 176.167C260.017 173.591 252.14 171.796 243.779 170.772L243.049 176.728ZM265.411 181.827C275.191 185.298 283.303 191.198 289.791 199.586L294.537 195.914C287.359 186.635 278.303 180.036 267.417 176.173L265.411 181.827ZM293.479 200.446C300.294 197.122 306.605 194.133 312.411 191.478L309.917 186.022C304.057 188.7 297.701 191.711 290.849 195.054L293.479 200.446ZM296.345 226.859C295.126 221.288 293.291 216.12 290.827 211.369L285.501 214.131C287.704 218.38 289.369 223.045 290.483 228.141L296.345 226.859ZM286.82 210.068C219.409 243.857 170.929 281.638 141.704 323.534L146.625 326.966C175.066 286.195 222.586 248.976 289.508 215.432L286.82 210.068ZM141.713 323.52C139.675 326.408 137.722 329.38 135.854 332.436L140.974 335.564C142.773 332.62 144.654 329.759 146.615 326.98L141.713 323.52ZM135.854 332.436C133.943 335.563 131.973 339.339 129.94 343.743L135.388 346.257C137.355 341.995 139.218 338.437 140.974 335.564L135.854 332.436ZM129.886 343.868C128.013 348.464 126.551 352.757 125.511 356.743L131.317 358.257C132.277 354.576 133.648 350.536 135.442 346.132L129.886 343.868ZM125.483 356.863C124.568 361.071 124.475 365.296 125.208 369.514L131.12 368.486C130.52 365.038 130.594 361.595 131.346 358.137L125.483 356.863ZM125.208 369.514C125.979 373.945 127.939 377.714 131.112 380.689L135.216 376.311C133.056 374.286 131.682 371.722 131.12 368.486L125.208 369.514ZM131.074 380.652C134.792 384.264 140.143 385.678 146.499 385.499C152.859 385.32 160.61 383.544 169.668 380.327L167.66 374.673C158.884 377.79 151.803 379.347 146.33 379.501C140.852 379.655 137.369 378.403 135.254 376.348L131.074 380.652ZM169.664 380.328C200.38 369.467 229.436 349.318 256.853 320.051L252.475 315.949C225.558 344.682 197.281 364.199 167.664 374.672L169.664 380.328ZM256.861 320.043C288.244 286.31 301.975 255.186 296.357 226.915L290.472 228.085C295.519 253.481 283.418 282.69 252.468 315.957L256.861 320.043Z" fill="white"/>
</svg>
