<svg width="246" height="374" viewBox="0 0 246 374" fill="none" xmlns="http://www.w3.org/2000/svg">
<path d="M234.164 164.75C236.331 163.75 238.247 163.917 239.914 165.25C241.581 166.583 242.331 168.417 242.164 170.75C242.164 172.917 241.081 174.5 238.914 175.5C233.914 177.667 228.081 180.417 221.414 183.75C227.914 196.583 230.247 210.167 228.414 224.5C225.081 250.667 209.581 277.917 181.914 306.25C154.914 333.75 126.831 352.917 97.6641 363.75C70.4974 373.75 52.6641 371.917 44.1641 358.25C30.8307 336.75 42.4141 307 78.9141 269C110.914 235.667 152.747 205.75 204.414 179.25C199.581 174.25 193.664 170.333 186.664 167.5C179.831 164.667 172.164 163 163.664 162.5C155.164 162 147.497 161.917 140.664 162.25C133.831 162.583 125.914 163.333 116.914 164.5C111.914 165 105.414 165.917 97.4141 167.25C89.4141 168.417 81.8307 169.5 74.6641 170.5C67.6641 171.5 61.1641 172.25 55.1641 172.75C49.4974 173.583 42.8307 173.833 35.1641 173.5C27.4974 173 21.1641 171.417 16.1641 168.75C10.9974 165.75 7.41406 161.917 5.41406 157.25C3.41406 152.583 2.91406 147.583 3.91406 142.25C5.08073 136.75 6.66406 131.667 8.66406 127C10.6641 122.333 13.0807 117.75 15.9141 113.25C33.5807 85.75 61.5807 60 99.9141 36C116.914 25.3333 133.331 17 149.164 11C164.997 4.83333 180.581 2.41666 195.914 3.74998C214.414 5.41666 225.664 12.4167 229.664 24.75C230.497 27.9167 230.997 31.1667 231.164 34.5C231.497 37.6667 231.164 41.1667 230.164 45C229.331 48.8333 228.581 52.0833 227.914 54.75C227.247 57.25 225.914 60.75 223.914 65.25C221.914 69.5833 220.497 72.5 219.664 74C218.997 75.5 217.581 78.5 215.414 83C214.247 85.1667 212.497 86.3333 210.164 86.5C207.997 86.6667 206.247 86 204.914 84.5C203.581 82.8333 203.414 80.9167 204.414 78.75C204.914 77.75 205.664 76.3333 206.664 74.5C207.664 72.5 208.497 70.8333 209.164 69.5C209.831 68.1667 210.664 66.5 211.664 64.5C212.664 62.3333 213.497 60.5 214.164 59C214.831 57.3333 215.581 55.5 216.414 53.5C217.247 51.5 217.831 49.6667 218.164 48C218.664 46.1667 219.081 44.3333 219.414 42.5C219.747 40.6667 219.831 38.9167 219.664 37.25C219.664 35.4167 219.497 33.6667 219.164 32C216.664 21 206.997 15.4167 190.164 15.25C173.497 14.9167 153.164 20.75 129.164 32.75C107.831 43.4167 87.8307 56.3333 69.1641 71.5C50.6641 86.6667 35.8307 103.25 24.6641 121.25C13.9974 138.417 12.2474 150.333 19.4141 157C21.4141 158.833 23.9141 160.25 26.9141 161.25C30.0807 162.25 33.8307 162.75 38.1641 162.75C42.4974 162.583 45.9141 162.417 48.4141 162.25C51.0807 162.083 54.9141 161.583 59.9141 160.75C65.0807 159.917 67.9974 159.5 68.6641 159.5C73.9974 158.833 81.6641 157.667 91.6641 156C101.664 154.167 110.164 152.833 117.164 152C124.331 151 132.331 150.167 141.164 149.5C149.997 148.667 158.414 148.75 166.414 149.75C174.581 150.75 182.247 152.5 189.414 155C199.747 158.667 208.331 164.917 215.164 173.75C221.997 170.417 228.331 167.417 234.164 164.75ZM216.414 203.5C215.247 198.167 213.497 193.25 211.164 188.75C143.997 222.417 95.9974 259.917 67.1641 301.25C65.1641 304.083 63.2474 307 61.4141 310C59.5807 313 57.6641 316.667 55.6641 321C53.8307 325.5 52.4141 329.667 51.4141 333.5C50.5807 337.333 50.4974 341.167 51.1641 345C51.8307 348.833 53.4974 352 56.1641 354.5C61.9974 360.167 73.8307 359.833 91.6641 353.5C121.831 342.833 150.497 323 177.664 294C208.831 260.5 221.747 230.333 216.414 203.5Z" fill="black"/>
<path d="M234.164 164.75L235.411 167.478L235.421 167.474L234.164 164.75ZM239.914 165.25L241.788 162.907L241.788 162.907L239.914 165.25ZM242.164 170.75L239.172 170.536L239.164 170.643V170.75H242.164ZM238.914 175.5L240.107 178.253L240.139 178.239L240.171 178.224L238.914 175.5ZM221.414 183.75L220.072 181.067L217.375 182.415L218.738 185.106L221.414 183.75ZM228.414 224.5L225.438 224.119L225.438 224.121L228.414 224.5ZM181.914 306.25L184.055 308.352L184.06 308.346L181.914 306.25ZM97.6641 363.75L98.7004 366.565L98.7086 366.562L97.6641 363.75ZM44.1641 358.25L41.6145 359.831L41.6166 359.834L44.1641 358.25ZM78.9141 269L81.0777 271.078L81.0782 271.078L78.9141 269ZM204.414 179.25L205.783 181.919L209.382 180.073L206.571 177.165L204.414 179.25ZM186.664 167.5L185.515 170.271L185.527 170.276L185.539 170.281L186.664 167.5ZM163.664 162.5L163.84 159.505L163.84 159.505L163.664 162.5ZM116.914 164.5L117.213 167.485L117.256 167.481L117.3 167.475L116.914 164.5ZM97.4141 167.25L97.847 170.219L97.8772 170.214L97.9073 170.209L97.4141 167.25ZM74.6641 170.5L74.2495 167.529L74.2398 167.53L74.6641 170.5ZM55.1641 172.75L54.9149 169.76L54.8209 169.768L54.7276 169.782L55.1641 172.75ZM35.1641 173.5L34.9688 176.494L35.0013 176.496L35.0338 176.497L35.1641 173.5ZM16.1641 168.75L14.6577 171.344L14.7045 171.372L14.7523 171.397L16.1641 168.75ZM3.91406 142.25L0.979361 141.627L0.971991 141.662L0.965447 141.697L3.91406 142.25ZM8.66406 127L5.90663 125.818L5.90663 125.818L8.66406 127ZM15.9141 113.25L13.39 111.628L13.3826 111.64L13.3754 111.652L15.9141 113.25ZM99.9141 36L101.506 38.5427L101.509 38.5412L99.9141 36ZM149.164 11L150.227 13.8053L150.24 13.8004L150.253 13.7955L149.164 11ZM195.914 3.74998L196.183 0.762069L196.174 0.76126L195.914 3.74998ZM229.664 24.75L232.565 23.9865L232.544 23.9048L232.518 23.8245L229.664 24.75ZM231.164 34.5L228.168 34.6498L228.172 34.7321L228.181 34.814L231.164 34.5ZM230.164 45L227.261 44.2427L227.246 44.3024L227.233 44.3627L230.164 45ZM227.914 54.75L230.813 55.523L230.819 55.5003L230.824 55.4776L227.914 54.75ZM223.914 65.25L226.638 66.5072L226.647 66.4879L226.656 66.4684L223.914 65.25ZM219.664 74L217.042 72.5431L216.977 72.6597L216.923 72.7816L219.664 74ZM215.414 83L218.055 84.4223L218.088 84.3626L218.117 84.3014L215.414 83ZM210.164 86.5L209.95 83.5076L209.942 83.5082L209.934 83.5088L210.164 86.5ZM204.914 84.5L202.571 86.3741L202.62 86.4349L202.672 86.4931L204.914 84.5ZM204.414 78.75L201.731 77.4084L201.71 77.4503L201.69 77.4928L204.414 78.75ZM206.664 74.5L209.298 75.9366L209.323 75.8895L209.347 75.8416L206.664 74.5ZM209.164 69.5L206.481 68.1583L206.481 68.1583L209.164 69.5ZM211.664 64.5L214.347 65.8416L214.368 65.7997L214.388 65.7572L211.664 64.5ZM214.164 59L216.906 60.2184L216.928 60.1667L216.949 60.1142L214.164 59ZM216.414 53.5L219.183 54.6538L219.183 54.6538L216.414 53.5ZM218.164 48L215.27 47.2106L215.243 47.3103L215.222 47.4116L218.164 48ZM219.664 37.25H216.664V37.3996L216.679 37.5485L219.664 37.25ZM219.164 32L222.106 31.4116L222.098 31.3733L222.089 31.3351L219.164 32ZM190.164 15.25L190.104 18.2494L190.119 18.2497L190.134 18.2498L190.164 15.25ZM129.164 32.75L130.506 35.4333L130.506 35.4333L129.164 32.75ZM69.1641 71.5L67.2723 69.1716L67.2621 69.18L69.1641 71.5ZM24.6641 121.25L27.2122 122.833L27.2133 122.831L24.6641 121.25ZM19.4141 157L17.3708 159.197L17.3788 159.204L17.3869 159.211L19.4141 157ZM26.9141 161.25L25.9654 164.096L25.988 164.104L26.0107 164.111L26.9141 161.25ZM38.1641 162.75V165.75H38.2217L38.2794 165.748L38.1641 162.75ZM48.4141 162.25L48.2269 159.256L48.2145 159.257L48.4141 162.25ZM59.9141 160.75L59.4364 157.788L59.4286 157.79L59.4209 157.791L59.9141 160.75ZM68.6641 159.5V162.5H68.8508L69.0362 162.477L68.6641 159.5ZM91.6641 156L92.1573 158.959L92.1812 158.955L92.205 158.951L91.6641 156ZM117.164 152L117.519 154.979L117.549 154.975L117.579 154.971L117.164 152ZM141.164 149.5L141.39 152.491L141.418 152.489L141.446 152.487L141.164 149.5ZM166.414 149.75L166.042 152.727L166.049 152.728L166.414 149.75ZM189.414 155L190.417 152.173L190.41 152.17L190.402 152.167L189.414 155ZM215.164 173.75L212.791 175.586L214.285 177.517L216.479 176.446L215.164 173.75ZM216.414 203.5L219.357 202.915L219.351 202.887L219.345 202.859L216.414 203.5ZM211.164 188.75L213.827 187.369L212.465 184.742L209.82 186.068L211.164 188.75ZM67.1641 301.25L69.615 302.98L69.6198 302.973L69.6246 302.966L67.1641 301.25ZM55.6641 321L52.9402 319.743L52.9116 319.805L52.8858 319.868L55.6641 321ZM51.4141 333.5L48.5112 332.743L48.4956 332.802L48.4825 332.863L51.4141 333.5ZM51.1641 345L48.2084 345.514L48.2084 345.514L51.1641 345ZM56.1641 354.5L58.2544 352.348L58.2353 352.33L58.2159 352.311L56.1641 354.5ZM91.6641 353.5L90.664 350.672L90.6601 350.673L91.6641 353.5ZM177.664 294L179.853 296.051L179.861 296.043L177.664 294ZM235.421 167.474C236.143 167.141 236.64 167.085 236.967 167.114C237.271 167.14 237.617 167.254 238.04 167.593L241.788 162.907C240.545 161.913 239.099 161.276 237.486 161.136C235.897 160.998 234.352 161.359 232.907 162.026L235.421 167.474ZM238.04 167.593C238.853 168.243 239.276 169.076 239.172 170.536L245.156 170.964C245.385 167.757 244.308 164.923 241.788 162.907L238.04 167.593ZM239.164 170.75C239.164 171.31 239.033 171.639 238.876 171.868C238.706 172.116 238.368 172.448 237.657 172.776L240.171 178.224C241.627 177.552 242.914 176.592 243.827 175.257C244.754 173.903 245.164 172.357 245.164 170.75H239.164ZM237.721 172.747C232.657 174.942 226.772 177.717 220.072 181.067L222.756 186.433C229.39 183.116 235.172 180.391 240.107 178.253L237.721 172.747ZM218.738 185.106C224.965 197.401 227.196 210.379 225.438 224.119L231.39 224.881C233.299 209.954 230.863 195.766 224.09 182.394L218.738 185.106ZM225.438 224.121C222.219 249.388 207.196 276.065 179.768 304.154L184.06 308.346C211.966 279.768 227.942 251.945 231.39 224.879L225.438 224.121ZM179.773 304.148C153.01 331.407 125.287 350.29 96.6195 360.938L98.7086 366.562C128.375 355.543 156.818 336.093 184.055 308.352L179.773 304.148ZM96.6278 360.935C83.2393 365.863 72.4868 367.741 64.2209 366.891C56.1072 366.057 50.4109 362.614 46.7115 356.666L41.6166 359.834C46.4172 367.553 53.8876 371.86 63.6073 372.859C73.1746 373.843 84.9222 371.637 98.7004 366.565L96.6278 360.935ZM46.7136 356.669C40.6723 346.927 40.0986 335.151 45.6471 320.901C51.2319 306.557 62.9463 289.955 81.0777 271.078L76.7505 266.922C58.3818 286.045 46.0546 303.318 40.056 318.724C34.0211 334.224 34.3225 348.073 41.6145 359.831L46.7136 356.669ZM81.0782 271.078C112.797 238.037 154.34 208.305 205.783 181.919L203.045 176.581C151.155 203.195 109.031 233.297 76.7499 266.922L81.0782 271.078ZM206.571 177.165C201.422 171.838 195.145 167.696 187.79 164.719L185.539 170.281C192.184 172.971 197.739 176.662 202.257 181.335L206.571 177.165ZM187.813 164.729C180.627 161.749 172.625 160.022 163.84 159.505L163.488 165.495C171.703 165.978 179.034 167.584 185.515 170.271L187.813 164.729ZM163.84 159.505C155.258 159 147.481 158.914 140.518 159.254L140.81 165.246C147.514 164.919 155.071 165 163.488 165.495L163.84 159.505ZM140.518 159.254C133.584 159.592 125.584 160.351 116.528 161.525L117.3 167.475C126.244 166.316 134.078 165.575 140.81 165.246L140.518 159.254ZM116.616 161.515C111.523 162.024 104.952 162.952 96.9209 164.291L97.9073 170.209C105.877 168.881 112.305 167.976 117.213 167.485L116.616 161.515ZM96.9811 164.281C88.9866 165.447 81.4094 166.53 74.2495 167.529L75.0787 173.471C82.2521 172.47 89.8416 171.386 97.847 170.219L96.9811 164.281ZM74.2398 167.53C67.2883 168.523 60.8474 169.266 54.9149 169.76L55.4132 175.74C61.4808 175.234 68.0399 174.477 75.0883 173.47L74.2398 167.53ZM54.7276 169.782C49.2994 170.58 42.831 170.831 35.2944 170.503L35.0338 176.497C42.8304 176.836 49.6954 176.586 55.6005 175.718L54.7276 169.782ZM35.3593 170.506C27.9752 170.025 22.0909 168.511 17.5758 166.103L14.7523 171.397C20.2372 174.322 27.0196 175.975 34.9688 176.494L35.3593 170.506ZM17.6705 166.156C12.9599 163.42 9.87446 160.042 8.1715 156.068L2.65663 158.432C4.95367 163.792 9.03486 168.08 14.6577 171.344L17.6705 166.156ZM8.1715 156.068C6.42207 151.986 5.96434 147.594 6.86268 142.803L0.965447 141.697C-0.136211 147.573 0.406057 153.18 2.65663 158.432L8.1715 156.068ZM6.84877 142.873C7.97904 137.544 9.50644 132.65 11.4215 128.182L5.90663 125.818C3.82169 130.683 2.18242 135.956 0.979361 141.627L6.84877 142.873ZM11.4215 128.182C13.3568 123.666 15.6992 119.222 18.4528 114.848L13.3754 111.652C10.4623 116.278 7.97136 121.001 5.90663 125.818L11.4215 128.182ZM18.4381 114.871C35.7924 87.8577 63.4124 62.3927 101.506 38.5427L98.3221 33.4572C59.7491 57.6073 31.369 83.6423 13.39 111.628L18.4381 114.871ZM101.509 38.5412C118.37 27.9611 134.61 19.7236 150.227 13.8053L148.101 8.19466C132.052 14.2764 115.458 22.7055 98.3196 33.4588L101.509 38.5412ZM150.253 13.7955C165.703 7.77818 180.825 5.44924 195.654 6.7387L196.174 0.76126C180.336 -0.615927 164.292 1.88847 148.075 8.20453L150.253 13.7955ZM195.645 6.73788C213.554 8.35135 223.338 14.9699 226.81 25.6755L232.518 23.8245C227.99 9.86338 215.274 2.48196 196.183 0.762083L195.645 6.73788ZM226.763 25.5135C227.542 28.4756 228.011 31.5198 228.168 34.6498L234.16 34.3502C233.984 30.8136 233.452 27.3577 232.565 23.9865L226.763 25.5135ZM228.181 34.814C228.468 37.546 228.192 40.6766 227.261 44.2427L233.067 45.7573C234.137 41.6567 234.527 37.7873 234.148 34.1859L228.181 34.814ZM227.233 44.3627C226.403 48.1774 225.66 51.3953 225.004 54.0224L230.824 55.4776C231.501 52.7713 232.258 49.4893 233.096 45.6373L227.233 44.3627ZM225.015 53.977C224.411 56.2442 223.155 59.5716 221.173 64.0316L226.656 66.4684C228.673 61.9284 230.084 58.2558 230.813 55.523L225.015 53.977ZM221.19 63.9928C219.185 68.3373 217.813 71.1554 217.042 72.5431L222.287 75.4569C223.182 73.8445 224.643 70.8293 226.638 66.5072L221.19 63.9928ZM216.923 72.7816C216.278 74.2326 214.881 77.1912 212.711 81.6985L218.117 84.3014C220.28 79.8087 221.717 76.7673 222.406 75.2184L216.923 72.7816ZM212.773 81.5777C212.063 82.8965 211.196 83.4186 209.95 83.5076L210.378 89.4924C213.798 89.248 216.432 87.4368 218.055 84.4223L212.773 81.5777ZM209.934 83.5088C208.613 83.6105 207.809 83.2417 207.156 82.5069L202.672 86.4931C204.685 88.7583 207.382 89.7228 210.394 89.4912L209.934 83.5088ZM207.257 82.6259C206.918 82.2025 206.804 81.8572 206.778 81.5526C206.749 81.2255 206.805 80.7292 207.138 80.0072L201.69 77.4928C201.023 78.9374 200.662 80.4828 200.8 82.0724C200.941 83.6844 201.577 85.1308 202.571 86.3741L207.257 82.6259ZM207.097 80.0916C207.573 79.14 208.303 77.7604 209.298 75.9366L204.03 73.0634C203.025 74.9063 202.255 76.36 201.731 77.4084L207.097 80.0916ZM209.347 75.8416C210.347 73.8416 211.181 72.175 211.847 70.8416L206.481 68.1583C205.814 69.4917 204.981 71.1584 203.981 73.1584L209.347 75.8416ZM211.847 70.8416C212.514 69.5083 213.347 67.8416 214.347 65.8416L208.981 63.1584C207.981 65.1584 207.147 66.825 206.481 68.1583L211.847 70.8416ZM214.388 65.7572C215.391 63.5828 216.231 61.7357 216.906 60.2184L211.423 57.7816C210.764 59.2643 209.937 61.0838 208.94 63.2428L214.388 65.7572ZM216.949 60.1142C217.61 58.4631 218.354 56.6432 219.183 54.6538L213.645 52.3461C212.807 54.3567 212.052 56.2035 211.379 57.8858L216.949 60.1142ZM219.183 54.6538C220.073 52.5185 220.725 50.493 221.106 48.5884L215.222 47.4116C214.937 48.8403 214.422 50.4815 213.645 52.3462L219.183 54.6538ZM221.058 48.7893C221.581 46.8743 222.017 44.9567 222.366 43.0366L216.462 41.9633C216.145 43.71 215.747 45.459 215.27 47.2106L221.058 48.7893ZM222.366 43.0366C222.744 40.9584 222.847 38.926 222.649 36.9515L216.679 37.5485C216.815 38.9073 216.751 40.3749 216.462 41.9633L222.366 43.0366ZM222.664 37.25C222.664 35.2344 222.481 33.2865 222.106 31.4116L216.222 32.5883C216.514 34.0468 216.664 35.5989 216.664 37.25H222.664ZM222.089 31.3351C220.657 25.0303 217.105 20.1791 211.54 16.9647C206.088 13.8158 198.885 12.3362 190.194 12.2501L190.134 18.2498C198.276 18.3305 204.324 19.7259 208.539 22.1603C212.64 24.5292 215.172 27.9697 216.239 32.6649L222.089 31.3351ZM190.224 12.2506C172.862 11.9033 152.02 17.9677 127.822 30.0667L130.506 35.4333C154.308 23.5323 174.133 17.93 190.104 18.2494L190.224 12.2506ZM127.822 30.0667C106.292 40.8321 86.1074 53.8681 67.2723 69.1716L71.0558 73.8283C89.5541 58.7985 109.37 46.0012 130.506 35.4333L127.822 30.0667ZM67.2621 69.18C48.5398 84.5289 33.4761 101.355 22.1148 119.668L27.2133 122.831C38.1854 105.145 52.7884 88.8044 71.0661 73.82L67.2621 69.18ZM22.1159 119.667C16.6931 128.394 13.3455 136.075 12.3834 142.627C11.4025 149.306 12.8949 155.033 17.3708 159.197L21.4574 154.803C18.7665 152.3 17.5507 148.735 18.3197 143.498C19.1077 138.133 21.9684 131.273 27.2122 122.833L22.1159 119.667ZM17.3869 159.211C19.745 161.373 22.6309 162.985 25.9654 164.096L27.8627 158.404C25.1972 157.515 23.0831 156.294 21.4412 154.789L17.3869 159.211ZM26.0107 164.111C29.5431 165.226 33.6122 165.75 38.1641 165.75V159.75C34.0492 159.75 30.6184 159.274 27.8175 158.389L26.0107 164.111ZM38.2794 165.748C42.6237 165.581 46.0725 165.413 48.6136 165.243L48.2145 159.257C45.7556 159.421 42.3711 159.586 38.0488 159.752L38.2794 165.748ZM48.6012 165.244C51.4242 165.068 55.3785 164.547 60.4073 163.709L59.4209 157.791C54.4496 158.619 50.7373 159.099 48.2269 159.256L48.6012 165.244ZM60.3918 163.712C62.9686 163.296 64.9689 162.987 66.4008 162.782C67.1181 162.68 67.6777 162.606 68.0887 162.558C68.5521 162.504 68.6954 162.5 68.6641 162.5V156.5C68.0658 156.5 66.9173 156.648 65.5523 156.843C64.0676 157.055 62.0262 157.371 59.4364 157.788L60.3918 163.712ZM69.0362 162.477C74.431 161.802 82.1455 160.628 92.1573 158.959L91.1709 153.041C81.1826 154.706 73.5638 155.864 68.292 156.523L69.0362 162.477ZM92.205 158.951C102.168 157.124 110.602 155.802 117.519 154.979L116.809 149.021C109.726 149.864 101.16 151.209 91.1231 153.049L92.205 158.951ZM117.579 154.971C124.671 153.982 132.606 153.154 141.39 152.491L140.938 146.509C132.055 147.179 123.991 148.018 116.749 149.029L117.579 154.971ZM141.446 152.487C150.083 151.672 158.279 151.757 166.042 152.727L166.786 146.773C158.549 145.743 149.912 145.661 140.882 146.513L141.446 152.487ZM166.049 152.728C174.021 153.704 181.477 155.409 188.426 157.833L190.402 152.167C183.017 149.591 175.14 147.796 166.779 146.772L166.049 152.728ZM188.411 157.827C198.191 161.298 206.303 167.198 212.791 175.586L217.537 171.914C210.359 162.635 201.303 156.036 190.417 152.173L188.411 157.827ZM216.479 176.446C223.294 173.122 229.605 170.133 235.411 167.478L232.917 162.022C227.057 164.7 220.701 167.711 213.849 171.054L216.479 176.446ZM219.345 202.859C218.126 197.288 216.291 192.12 213.827 187.369L208.501 190.131C210.704 194.38 212.369 199.045 213.483 204.141L219.345 202.859ZM209.82 186.068C142.409 219.857 93.9291 257.638 64.7036 299.534L69.6246 302.966C98.0657 262.195 145.586 224.976 212.508 191.432L209.82 186.068ZM64.7132 299.52C62.6745 302.408 60.7216 305.38 58.8542 308.436L63.9739 311.564C65.7732 308.62 67.6536 305.759 69.615 302.98L64.7132 299.52ZM58.8542 308.436C56.9433 311.563 54.9729 315.339 52.9402 319.743L58.3879 322.257C60.3552 317.995 62.2182 314.437 63.9739 311.564L58.8542 308.436ZM52.8858 319.868C51.0134 324.464 49.5509 328.757 48.5112 332.743L54.3169 334.257C55.2772 330.576 56.6481 326.536 58.4423 322.132L52.8858 319.868ZM48.4825 332.863C47.5676 337.071 47.4748 341.296 48.2084 345.514L54.1197 344.486C53.52 341.038 53.5939 337.595 54.3456 334.137L48.4825 332.863ZM48.2084 345.514C48.979 349.945 50.9389 353.714 54.1122 356.689L58.2159 352.311C56.0559 350.286 54.6825 347.722 54.1197 344.486L48.2084 345.514ZM54.0737 356.652C57.792 360.264 63.1427 361.678 69.4985 361.499C75.859 361.32 83.6104 359.544 92.6681 356.327L90.6601 350.673C81.8844 353.79 74.8025 355.347 69.3296 355.501C63.8521 355.655 60.3695 354.403 58.2544 352.348L54.0737 356.652ZM92.6642 356.328C123.38 345.467 152.436 325.318 179.853 296.051L175.475 291.949C148.558 320.682 120.281 340.199 90.664 350.672L92.6642 356.328ZM179.861 296.043C211.244 262.31 224.975 231.186 219.357 202.915L213.472 204.085C218.519 229.481 206.418 258.69 175.468 291.957L179.861 296.043Z" fill="black"/>
</svg>
