<svg width="128" height="41" viewBox="0 0 128 41" fill="none" xmlns="http://www.w3.org/2000/svg">
<g clip-path="url(#clip0_11_18)">
<path d="M64.4485 30.7586C58.3106 30.7586 55.1549 28.4995 55.1549 24.0508H61.1194C61.1194 25.7886 62.1598 26.5532 64.5872 26.5532C66.2864 26.5532 66.9453 26.1709 66.9453 25.3368C66.9453 24.7459 66.5292 24.3636 65.6275 24.1203L60.1138 22.6258C58.2412 22.1393 55.675 20.8185 55.675 17.6905C55.675 14.2845 58.692 12.4772 63.7203 12.4772C69.1994 12.4772 72.6324 14.6321 72.6324 18.907H66.7026C66.7026 17.3777 65.8009 16.6479 63.755 16.6479C62.3678 16.6479 61.6049 17.0302 61.6049 17.7601C61.6049 18.3857 62.2291 18.8027 63.3388 19.0808L67.4308 20.0539C70.2397 20.7143 72.9099 22.0697 72.9099 25.441C72.9099 28.8471 70.1703 30.7586 64.4485 30.7586Z" fill="white"/>
<path d="M75.4579 30.4111V4.86577H81.3877V14.8058L80.2434 18.1076H81.7345C82.4628 14.9796 84.6475 12.4772 88.358 12.4772C92.9007 12.4772 95.675 15.5705 95.675 21.0966V30.4111H89.6757V22.035C89.6757 18.8722 88.8435 17.7253 86.208 17.7253C83.295 17.7253 81.3877 19.1155 81.3877 24.0856V30.4111H75.4579Z" fill="white"/>
<path d="M98.3506 30.4111V12.8248H104.28V14.3888L103.171 17.7253H104.627C105.321 14.5973 106.881 12.4772 110.314 12.4772C113.643 12.4772 114.996 14.7016 115.516 17.7253H116.556C117.25 14.5973 118.741 12.4772 122.174 12.4772C126.752 12.4772 128 16.6826 128 21.4441V30.4111H122.07V21.8265C122.07 18.4899 121.55 17.7253 119.608 17.7253C116.695 17.7253 116.14 20.2277 116.14 24.4331V30.4111H110.176L110.21 30.3416V21.8265C110.21 18.4899 109.69 17.7253 107.748 17.7253C104.835 17.7253 104.28 20.2277 104.28 24.4331V30.4111H98.3506Z" fill="white"/>
<path d="M0.00569099 10.3652C-0.014013 10.3527 0.0253671 10.3779 0.00569099 10.3652L6.35404 0.318491C9.69118 2.4599 13.5839 3.57151 17.5476 3.51489C21.5113 3.45825 25.3707 2.23588 28.6454 0L34.6777 8.85097C29.6681 12.2714 23.7639 14.1414 17.7004 14.228C16.7796 14.2412 15.8614 14.2131 14.9482 14.1446L18.2184 16.6783C18.0903 16.9538 17.9521 17.2236 17.8043 17.4873C17.4953 18.0116 17.1585 18.5183 16.7955 19.0054C14.9828 21.331 12.3357 22.9733 9.30454 23.4814C5.01046 20.149 1.75555 15.5988 0.00463112 10.3656L0.00569099 10.3652Z" fill="#E2FF00"/>
<path d="M21.79 18.9536C20.374 21.7612 18.2974 24.2095 15.7292 26.0639C15.1955 26.4558 14.6415 26.8144 14.0699 27.1387C12.0578 28.3017 9.80405 29.1244 7.37378 29.5165C6.61598 29.6387 5.86134 29.7159 5.11257 29.7498L4.73192 40.1675C11.4719 40.4142 18.0705 38.1928 23.2916 33.9196C26.3415 31.4234 28.7992 28.327 30.5344 24.8558L21.79 18.9536Z" fill="#E2FF00"/>
</g>
<defs>
<clipPath id="clip0_11_18">
<rect width="128" height="40.186" fill="white"/>
</clipPath>
</defs>
</svg>
